<?xml version="1.0" encoding="UTF-8"?>
<svg width="638px" height="267px" viewBox="0 0 638 267" version="1.1" xmlns="http://www.w3.org/2000/svg" xmlns:xlink="http://www.w3.org/1999/xlink">
    <!-- Generator: Sketch 62 (91390) - https://sketch.com -->
    <title>gatsby-anchor-link</title>
    <desc>Created with Sketch.</desc>
    <g id="Page-1" stroke="none" stroke-width="1" fill="none" fill-rule="evenodd">
        <g id="Rectangle">
            <rect fill="#EF402F" x="0" y="0" width="638" height="267"></rect>
            <g id="noun_Anchor_1748519" stroke-width="1" transform="translate(243.000000, 59.000000)" fill="#000000">
                <path d="M142.263158,8.10276273 L153,8.10276273 L153,2.71812064 L142.263158,2.71812064 C137.815812,2.71812064 134.210526,6.33430021 134.210526,10.7950838 L134.210526,13.4874048 L128.842105,13.4874048 L128.842105,10.7950838 C128.842105,6.33430021 125.236819,2.71812064 120.789474,2.71812064 L104.684211,2.71812064 C100.236865,2.71812064 96.6315789,6.33430021 96.6315789,10.7950838 L96.6315789,13.4874048 L88.3373684,13.4874048 C87.0407435,5.71685813 80.3445099,0.0179834973 72.4896345,4.20724119e-05 C64.634759,-0.0178148094 57.9127785,5.65048332 56.5809662,13.4150405 C55.249154,21.1795977 59.6960453,28.7752262 67.1052632,31.3913398 L67.1052632,37.7182942 L45.6315789,37.7182942 L49.6578947,43.1029363 L67.1052632,43.1029363 L67.1052632,105.882478 C67.1055864,111.636407 64.4241834,117.059679 59.8573189,120.541807 C55.2904544,124.023936 49.3632516,125.164528 43.8358421,123.624874 C25.8857944,118.579032 13.4633807,102.185693 13.4210526,83.487752 C13.4210526,82.0008241 14.6228146,80.795431 16.1052632,80.795431 L21.4736842,80.795431 L10.7368421,66.4372828 L0,80.795431 L5.36842105,80.795431 C6.85086959,80.795431 8.05263158,82.0008241 8.05263158,83.487752 L8.05263158,87.5262336 C8.08665111,116.507181 31.5010934,139.992372 60.3947368,140.026494 C63.7724468,140.034078 66.9515353,141.628426 68.9842105,144.334208 L72.4736842,149 L75.9631579,144.334208 C77.9958331,141.628426 81.1749216,140.034078 84.5526316,140.026494 C113.446275,139.992372 136.860717,116.507181 136.894737,87.5262336 L136.894737,83.487752 C136.894737,82.0008241 138.096499,80.795431 139.578947,80.795431 L144.947368,80.795431 L134.210526,66.4372828 L123.473684,80.795431 L128.842105,80.795431 C130.324554,80.795431 131.526316,82.0008241 131.526316,83.487752 C131.483988,102.185693 119.061574,118.579032 101.111526,123.624874 C95.5841168,125.164528 89.656914,124.023936 85.0900495,120.541807 C80.523185,117.059679 77.841782,111.636407 77.8421053,105.882478 L77.8421053,43.1029363 L95.2894737,43.1029363 L99.3157895,37.7182942 L77.8421053,37.7182942 L77.8421053,31.3832628 C83.3374699,29.4214733 87.3499355,24.6382847 88.3373684,18.8720469 L96.6315789,18.8720469 L96.6315789,21.564368 C96.6315789,26.0251515 100.236865,29.6413311 104.684211,29.6413311 L120.789474,29.6413311 C125.236819,29.6413311 128.842105,26.0251515 128.842105,21.564368 L128.842105,18.8720469 L134.210526,18.8720469 L134.210526,21.564368 C134.210526,26.0251515 137.815812,29.6413311 142.263158,29.6413311 L153,29.6413311 L153,24.256689 L142.263158,24.256689 C140.780709,24.256689 139.578947,23.0512958 139.578947,21.564368 L139.578947,18.8720469 L147.631579,18.8720469 L147.631579,13.4874048 L139.578947,13.4874048 L139.578947,10.7950838 C139.578947,9.30815592 140.780709,8.10276273 142.263158,8.10276273 Z M82.8293684,18.8720469 C81.4776885,24.1228988 76.4442041,27.546504 71.0805776,26.8631756 C65.7169511,26.1798472 61.6966236,21.6027823 61.6966236,16.1797259 C61.6966236,10.7566694 65.7169511,6.17960454 71.0805776,5.49627615 C76.4442041,4.81294776 81.4776885,8.23655298 82.8293684,13.4874048 L72.4736842,13.4874048 L72.4736842,18.8720469 L82.8293684,18.8720469 Z M123.473684,13.4874048 L115.421053,13.4874048 L115.421053,18.8720469 L123.473684,18.8720469 L123.473684,21.564368 C123.473684,23.0512958 122.271922,24.256689 120.789474,24.256689 L104.684211,24.256689 C103.201762,24.256689 102,23.0512958 102,21.564368 L102,18.8720469 L110.052632,18.8720469 L110.052632,13.4874048 L102,13.4874048 L102,10.7950838 C102,9.30815592 103.201762,8.10276273 104.684211,8.10276273 L120.789474,8.10276273 C122.271922,8.10276273 123.473684,9.30815592 123.473684,10.7950838 L123.473684,13.4874048 Z" id="Shape" fill-rule="nonzero"></path>
            </g>
        </g>
    </g>
</svg>