<?xml version="1.0" encoding="UTF-8"?>
<svg width="1094px" height="458px" viewBox="0 0 1094 458" version="1.1" xmlns="http://www.w3.org/2000/svg" xmlns:xlink="http://www.w3.org/1999/xlink">
    <!-- Generator: Sketch 62 (91390) - https://sketch.com -->
    <title>gatsby-anchor-link</title>
    <desc>Created with Sketch.</desc>
    <g id="Page-1" stroke="none" stroke-width="1" fill="none" fill-rule="evenodd">
        <g id="gatsby-anchor-link">
            <g id="Rectangle">
                <rect fill="#EF402F" x="0" y="0" width="1094" height="458"></rect>
                <g id="noun_Anchor_1748519" stroke-width="1" transform="translate(416.680251, 101.205993)" fill="#000000">
                    <path d="M243.943409,13.8991211 L262.354232,13.8991211 L262.354232,4.66254402 L243.943409,4.66254402 C236.317396,4.66254402 230.135291,10.8655786 230.135291,18.5174096 L230.135291,23.1356982 L220.92988,23.1356982 L220.92988,18.5174096 C220.92988,10.8655786 214.747775,4.66254402 207.121762,4.66254402 L179.505527,4.66254402 C171.879514,4.66254402 165.69741,10.8655786 165.69741,18.5174096 L165.69741,23.1356982 L151.475049,23.1356982 C149.251682,9.80644578 137.769426,0.0308480965 124.300408,7.21691559e-05 C110.831389,-0.0305587367 99.3049838,9.69258936 97.0212806,23.0115676 C94.7375775,36.3305459 102.362811,49.3597513 115.067646,53.8473169 L115.067646,64.700295 L78.245999,64.700295 L85.1500577,73.936872 L115.067646,73.936872 L115.067646,181.626124 C115.0682,191.49616 110.470308,200.799 102.639353,206.772089 C94.8083968,212.745179 84.6448233,214.701699 75.1667888,212.060646 C44.38724,203.40523 23.0861104,175.284822 23.0135291,143.2112 C23.0135291,140.66059 25.0742307,138.592912 27.6162349,138.592912 L36.8216466,138.592912 L18.4108233,113.963579 L0,138.592912 L9.20541165,138.592912 C11.7474159,138.592912 13.8081175,140.66059 13.8081175,143.2112 L13.8081175,150.138633 C13.8664519,199.851269 54.0159815,240.136727 103.560881,240.195259 C109.352754,240.208269 114.804043,242.943142 118.28954,247.584521 L124.273057,255.588015 L130.256575,247.584521 C133.742071,242.943142 139.193361,240.208269 144.985233,240.195259 C194.530133,240.136727 234.679663,199.851269 234.737997,150.138633 L234.737997,143.2112 C234.737997,140.66059 236.798699,138.592912 239.340703,138.592912 L248.546115,138.592912 L230.135291,113.963579 L211.724468,138.592912 L220.92988,138.592912 C223.471884,138.592912 225.532585,140.66059 225.532585,143.2112 C225.460004,175.284822 204.158875,203.40523 173.379326,212.060646 C163.901291,214.701699 153.737718,212.745179 145.906762,206.772089 C138.075806,200.799 133.477915,191.49616 133.478469,181.626124 L133.478469,73.936872 L163.396057,73.936872 L170.300115,64.700295 L133.478469,64.700295 L133.478469,53.8334621 C142.901555,50.4682951 149.781864,42.2634247 151.475049,32.3722752 L165.69741,32.3722752 L165.69741,36.9905638 C165.69741,44.6423947 171.879514,50.8454294 179.505527,50.8454294 L207.121762,50.8454294 C214.747775,50.8454294 220.92988,44.6423947 220.92988,36.9905638 L220.92988,32.3722752 L230.135291,32.3722752 L230.135291,36.9905638 C230.135291,44.6423947 236.317396,50.8454294 243.943409,50.8454294 L262.354232,50.8454294 L262.354232,41.6088523 L243.943409,41.6088523 C241.401404,41.6088523 239.340703,39.5411741 239.340703,36.9905638 L239.340703,32.3722752 L253.14882,32.3722752 L253.14882,23.1356982 L239.340703,23.1356982 L239.340703,18.5174096 C239.340703,15.9667993 241.401404,13.8991211 243.943409,13.8991211 Z M142.030296,32.3722752 C139.712525,41.3793544 131.081441,47.2520555 121.884251,46.0799042 C112.68706,44.9077529 105.79327,37.0564581 105.79327,27.7539867 C105.79327,18.4515153 112.68706,10.6002205 121.884251,9.42806921 C131.081441,8.25591788 139.712525,14.128619 142.030296,23.1356982 L124.273057,23.1356982 L124.273057,32.3722752 L142.030296,32.3722752 Z M211.724468,23.1356982 L197.91635,23.1356982 L197.91635,32.3722752 L211.724468,32.3722752 L211.724468,36.9905638 C211.724468,39.5411741 209.663766,41.6088523 207.121762,41.6088523 L179.505527,41.6088523 C176.963523,41.6088523 174.902821,39.5411741 174.902821,36.9905638 L174.902821,32.3722752 L188.710939,32.3722752 L188.710939,23.1356982 L174.902821,23.1356982 L174.902821,18.5174096 C174.902821,15.9667993 176.963523,13.8991211 179.505527,13.8991211 L207.121762,13.8991211 C209.663766,13.8991211 211.724468,15.9667993 211.724468,18.5174096 L211.724468,23.1356982 Z" id="Shape" fill-rule="nonzero"></path>
                </g>
            </g>
            <g id="Gatsby-Monogram" stroke-width="1" transform="translate(518.000000, 105.000000)">
                <circle id="Oval" fill="#000000" fill-rule="nonzero" cx="23" cy="23" r="23"></circle>
                <path d="M10.2363636,35.7636364 C6.8,32.3272727 5,27.7454545 5,23.3272727 L22.8363636,41 C18.2545455,40.8363636 13.6727273,39.2 10.2363636,35.7636364 Z M26.9272727,40.5090909 L5.49090909,19.0727273 C7.29090909,11.0545455 14.4909091,5 23,5 C29.0545455,5 34.2909091,7.94545455 37.5636364,12.3636364 L35.1090909,14.4909091 C32.3272727,10.7272727 27.9090909,8.27272727 23,8.27272727 C16.6181818,8.27272727 11.2181818,12.3636364 9.09090909,18.0909091 L27.9090909,36.9090909 C32.6545455,35.2727273 36.2545455,31.1818182 37.4,26.2727273 L29.5454545,26.2727273 L29.5454545,23 L41,23 C41,31.5090909 34.9454545,38.7090909 26.9272727,40.5090909 Z" id="Shape" fill="#FFFFFF" fill-rule="nonzero"></path>
            </g>
        </g>
    </g>
</svg>